<svg width="56" height="48" viewBox="0 0 56 48" fill="none" xmlns="http://www.w3.org/2000/svg">
<path d="M24.1111 0C10.7917 0 0 10.7419 0 24C0 37.2581 10.7917 48 24.1111 48C37.4306 48 48.2222 37.2581 48.2222 24C48.2222 21.5439 47.8508 19.1748 47.1625 16.9442L53.3769 22.0703L56 16.0152L46.4528 14.9613C46.3896 14.8065 46.3254 14.6526 46.2583 14.4997L55.4837 10.5871L51.625 5.19097L45.7518 13.4081C41.8221 5.46387 33.6097 0 24.1111 0ZM12.4435 24C12.4435 23.1 12.8421 22.3065 13.4643 21.7355L10.4504 20.8355C9.62403 20.5935 9.15736 19.7226 9.41014 18.9097C9.65319 18.0871 10.5185 17.6323 11.3449 17.8742L19.1226 20.1968C19.949 20.4387 20.4157 21.3097 20.1629 22.1226C19.9588 22.7903 19.3463 23.2258 18.6754 23.2258C18.6268 23.2258 18.5685 23.2065 18.5101 23.2065C18.5782 23.4677 18.6754 23.7194 18.6754 24C18.6754 25.7129 17.2851 27.0968 15.5643 27.0968C13.8435 27.0968 12.4435 25.7129 12.4435 24ZM37.0028 20.8355L33.9889 21.7355C34.6014 22.2968 35.0097 23.1 35.0097 24C35.0097 25.7129 33.6194 27.0968 31.8986 27.0968C30.1778 27.0968 28.7875 25.7129 28.7875 24C28.7875 23.7194 28.875 23.4581 28.9528 23.2065C28.8944 23.2161 28.8458 23.2258 28.7875 23.2258C28.1167 23.2258 27.5042 22.7903 27.3 22.1226C27.0569 21.3 27.5236 20.4387 28.3403 20.1968L36.1181 17.8742C36.9347 17.6323 37.8097 18.0968 38.0528 18.9097C38.2958 19.7323 37.8292 20.5935 37.0028 20.8355ZM11.2204 15.7761H36.7471C40.8644 15.7761 42.0914 20.5897 41.9776 23.9042C41.8629 27.2748 37.9147 30.9232 34.9553 30.9232C28.9683 30.9232 27.7978 27.0281 23.9838 27.0252C20.1697 27.0281 18.9992 30.9232 13.0122 30.9232C10.0528 30.9232 6.10458 27.2748 5.98986 23.9042C5.87611 20.5897 7.10306 15.7761 11.2204 15.7761Z" fill="black"/>
</svg>
