<svg width="45" height="44" viewBox="0 0 45 44" fill="none" xmlns="http://www.w3.org/2000/svg">
<path fill-rule="evenodd" clip-rule="evenodd" d="M22.5 44C24.0533 44 25.3125 42.7688 25.3125 41.25V24.75H42.1875C43.7408 24.75 45 23.5188 45 22C45 20.4812 43.7408 19.25 42.1875 19.25H25.3125V2.75C25.3125 1.23117 24.0533 0 22.5 0C20.9467 0 19.6875 1.23117 19.6875 2.75V19.25H2.8125C1.25921 19.25 0 20.4812 0 22C0 23.5188 1.25921 24.75 2.8125 24.75H19.6875V41.25C19.6875 42.7688 20.9467 44 22.5 44Z" fill="black"/>
</svg>
