<svg width="518" height="66" viewBox="0 0 518 66" fill="none" xmlns="http://www.w3.org/2000/svg">
<g clip-path="url(#clip0_44_20)">
<path d="M32.301 1.30606V19.1939C31.3093 18.8187 30.2702 18.5866 29.2144 18.5045C28.5389 18.5008 27.8701 18.6411 27.2517 18.9162C26.6333 19.1913 26.0792 19.595 25.6254 20.101C24.6679 21.0612 24.1258 22.3659 24.1181 23.7294C24.2536 25.493 24.8344 27.192 25.8049 28.664L27.2046 31.1312C29.5915 35.0447 30.916 39.525 31.0448 44.1208C31.0973 47.0214 30.5497 49.9011 29.4372 52.5753C28.3248 55.2496 26.6719 57.6593 24.5846 59.6502C22.5204 61.7318 20.0595 63.3679 17.3512 64.4594C14.6429 65.5508 11.7436 66.0749 8.82893 65.9999C5.77059 65.9816 2.75464 65.2751 0 63.9317L0 45.7898C1.38047 46.788 3.0083 47.3785 4.70159 47.4952C6.16917 47.5469 7.60289 47.0422 8.72126 46.0801C9.24973 45.6428 9.67064 45.0876 9.95088 44.458C10.2311 43.8284 10.3631 43.1416 10.3363 42.4517C9.84858 40.2892 8.97274 38.2355 7.75223 36.3924C5.12353 31.9702 3.68803 26.9284 3.589 21.7701C3.54907 18.9145 4.08543 16.0808 5.16532 13.4419C6.24521 10.803 7.84595 8.41442 9.86974 6.42206C11.7897 4.36386 14.111 2.73049 16.687 1.6251C19.2629 0.519713 22.0376 -0.0336863 24.8359 -0.000148855C27.3795 0.00420234 29.9039 0.445905 32.301 1.30606Z" fill="#231F20"/>
<path d="M55.6295 1.56018V19.1578H63.2741V37.2996H55.6295C55.3769 39.9702 56.0081 42.6501 57.424 44.9192C58.253 45.7032 59.2414 46.2945 60.3201 46.6517C61.3988 47.009 62.5418 47.1235 63.6689 46.9873V65.1292H61.7308C57.9761 65.1225 54.2799 64.1883 50.9638 62.4079C47.6501 60.7328 44.8101 58.2362 42.7091 55.1512C39.9059 50.4035 38.5455 44.9273 38.7971 39.404V1.56018H55.6295Z" fill="#231F20"/>
<path d="M116.319 44.2661H90.4786C90.1122 43.0916 89.9187 41.8691 89.9044 40.6377C89.9156 39.1477 90.1953 37.6723 90.7299 36.2837H99.3793C99.3614 35.5529 99.198 34.8333 98.8989 34.1678C98.5998 33.5022 98.1712 32.9044 97.6387 32.41C97.1061 31.9156 96.4804 31.5347 95.7991 31.2901C95.1177 31.0455 94.3946 30.9422 93.6728 30.9862C92.6488 30.9821 91.6392 31.2312 90.7322 31.7119C89.8251 32.1925 89.0481 32.8901 88.4688 33.7438C87.0729 35.8115 86.3801 38.2821 86.4948 40.7828C86.3712 43.3475 87.0492 45.8864 88.4329 48.0396C88.9753 48.8958 89.7246 49.5983 90.6099 50.0808C91.4953 50.5632 92.4877 50.8098 93.4934 50.7971C94.4451 50.7371 95.374 50.477 96.2206 50.0334C97.0673 49.5898 97.813 48.9725 98.4103 48.221L108.136 60.0132C103.848 63.4753 98.5147 65.3452 93.0268 65.3106C89.8855 65.3882 86.7612 64.8205 83.8432 63.6417C80.9253 62.463 78.2743 60.6978 76.0509 58.453C73.8057 56.2562 72.0345 53.6136 70.8486 50.6912C69.6627 47.7689 69.0878 44.6301 69.16 41.4722C69.0979 38.2984 69.6842 35.1458 70.8823 32.2115C72.0803 29.2772 73.8643 26.6244 76.1226 24.4189C78.3664 22.1357 81.0499 20.3426 84.007 19.1505C86.9641 17.9584 90.1318 17.3928 93.3139 17.4887C96.3878 17.4398 99.4401 18.0153 102.29 19.1809C105.14 20.3465 107.729 22.0787 109.905 24.2746C112.08 26.4706 113.797 29.0857 114.955 31.965C116.112 34.8443 116.686 37.9292 116.642 41.0368C116.499 41.7262 116.427 42.7784 116.319 44.2661Z" fill="#231F20"/>
<path d="M148.62 47.1687V65.0203C147.363 65.2373 146.091 65.3586 144.816 65.3831C141.655 65.4726 138.508 64.9144 135.566 63.7421C132.624 62.5698 129.947 60.8077 127.697 58.5618C125.461 56.3383 123.703 53.6738 122.529 50.7338C121.356 47.7938 120.794 44.6413 120.877 41.4722C120.819 38.327 121.401 35.2034 122.587 32.2949C123.772 29.3864 125.536 26.755 127.768 24.564C129.953 22.3099 132.569 20.5297 135.457 19.3319C138.345 18.1341 141.444 17.544 144.565 17.5975C147.754 17.4258 150.944 17.9167 153.937 19.04C156.931 20.1633 159.666 21.8952 161.971 24.1286C164.158 26.5084 165.847 29.3093 166.939 32.3641C168.03 35.4188 168.501 38.6646 168.324 41.9076V64.4398H151.276V43.1775C151.395 41.0922 150.771 39.0328 149.518 37.3721C148.957 36.6628 148.239 36.0964 147.423 35.7183C146.606 35.3402 145.714 35.161 144.816 35.1951C143.07 35.2229 141.402 35.9341 140.164 37.1791C138.926 38.4242 138.213 40.1061 138.176 41.8713C138.147 42.7336 138.291 43.5929 138.6 44.3974C138.908 45.2018 139.375 45.9347 139.971 46.5519C140.556 47.1618 141.26 47.6415 142.039 47.9602C142.817 48.2788 143.653 48.4295 144.493 48.4024C145.957 48.3972 147.389 47.9692 148.62 47.1687Z" fill="#231F20"/>
<path d="M195.277 1.56018V64.4398H178.23V1.56018H195.277Z" fill="#231F20"/>
<path d="M220.436 1.56018V19.1578H228.081V37.2996H220.436C220.178 39.938 220.784 42.5892 222.159 44.8466C222.988 45.6306 223.976 46.2219 225.055 46.5792C226.134 46.9364 227.277 47.051 228.404 46.9148V65.0566H226.466C222.711 65.05 219.015 64.1158 215.699 62.3353C212.385 60.6602 209.545 58.1636 207.444 55.0786C204.641 50.3309 203.28 44.8548 203.532 39.3315V1.56018H220.436Z" fill="#231F20"/>
<path d="M253.527 1.56018V20.7905C255.985 18.7949 259.024 17.6729 262.176 17.5976C264.19 17.4889 266.201 17.8667 268.042 18.6995C269.883 19.5324 271.502 20.7964 272.764 22.387C275.415 26.1508 276.684 30.7318 276.353 35.3403V64.3672H259.377V40.166C259.491 38.8409 259.281 37.5078 258.767 36.2837C258.499 35.9142 258.138 35.6247 257.721 35.4458C257.304 35.267 256.847 35.2054 256.398 35.2677C254.46 35.2677 253.527 36.6828 253.527 39.5492V64.5124H236.479V1.56018H253.527Z" fill="#231F20"/>
<path d="M314.719 19.6294V64.4397H296.2V19.6294H281.844V1.48755H328.501V19.6294H314.719Z" fill="#231F20"/>
<path d="M359.33 18.1418V36.5376C358.335 35.9508 357.215 35.6148 356.064 35.5579C352.978 35.5579 351.435 37.9768 351.435 42.8147V64.5849H334.387V39.3314C334.094 33.5423 336.022 27.8622 339.77 23.4755C341.599 21.4995 343.829 19.9476 346.307 18.9266C348.785 17.9057 351.453 17.4398 354.126 17.5612C355.874 17.612 357.614 17.8062 359.33 18.1418Z" fill="#231F20"/>
<path d="M389.55 47.1687V65.0203C388.293 65.2387 387.021 65.36 385.745 65.3832C382.59 65.4719 379.449 64.9132 376.513 63.7408C373.577 62.5684 370.906 60.8066 368.662 58.5618C366.415 56.3454 364.646 53.6829 363.466 50.7419C362.287 47.8008 361.722 44.6447 361.807 41.4722C361.742 38.3175 362.324 35.1833 363.516 32.2671C364.708 29.3509 366.485 26.7158 368.734 24.5277C370.914 22.2685 373.53 20.4848 376.418 19.2867C379.307 18.0885 382.408 17.5013 385.53 17.5613C388.713 17.3902 391.898 17.8816 394.886 19.005C397.874 20.1284 400.602 21.8599 402.901 24.0923C405.087 26.4721 406.777 29.2731 407.868 32.3278C408.96 35.3825 409.431 38.6284 409.253 41.8713V64.4035H392.206V43.1775C392.324 41.0922 391.7 39.0328 390.447 37.3722C389.888 36.6607 389.171 36.0926 388.354 35.7143C387.537 35.336 386.643 35.1581 385.745 35.1951C384 35.214 382.331 35.9235 381.097 37.1714C379.862 38.4194 379.16 40.1065 379.142 41.8713C379.108 42.731 379.246 43.5888 379.548 44.3931C379.851 45.1975 380.31 45.9318 380.9 46.5519C381.485 47.1618 382.189 47.6415 382.968 47.9602C383.747 48.2788 384.583 48.4295 385.422 48.4024C386.886 48.3973 388.318 47.9692 389.55 47.1687Z" fill="#231F20"/>
<path d="M464.201 1.56018V39.912C464.466 46.1186 462.532 52.2172 458.746 57.1105C456.561 59.7115 453.826 61.7824 450.742 63.1699C446.262 65.2595 441.261 65.9273 436.398 65.0853C431.535 64.2432 427.038 61.9308 423.502 58.453C421.248 56.2667 419.466 53.6328 418.268 50.7167C417.07 47.8007 416.481 44.6656 416.539 41.5085C416.511 38.3718 417.113 35.2619 418.31 32.3678C419.507 29.4737 421.273 26.8558 423.502 24.6729C425.605 22.4139 428.148 20.6192 430.971 19.4015C433.793 18.1839 436.835 17.5697 439.903 17.5976C440.765 17.5976 444.677 17.2347 447.081 17.2347V1.56018H464.201Z" fill="#231F20"/>
<path d="M517.821 44.266H491.98C491.613 43.0916 491.42 41.869 491.406 40.6376C491.412 39.0882 491.691 37.5523 492.231 36.1022H500.881C500.797 34.6776 500.164 33.3432 499.116 32.3863C498.069 31.4294 496.692 30.9266 495.282 30.9862C494.262 30.9785 493.256 31.2263 492.354 31.7075C491.453 32.1887 490.683 32.8883 490.114 33.7437C488.69 35.8 487.983 38.2761 488.104 40.7828C487.98 43.3474 488.658 45.8863 490.042 48.0395C490.584 48.8958 491.333 49.5983 492.219 50.0807C493.104 50.5632 494.097 50.8097 495.102 50.7971C496.055 50.7415 496.985 50.4833 497.833 50.0394C498.68 49.5955 499.425 48.9758 500.019 48.2209L509.638 59.9768C505.357 63.4572 500.021 65.3407 494.528 65.3105C491.387 65.384 488.264 64.8143 485.347 63.6358C482.429 62.4573 479.778 60.6943 477.552 58.4529C475.307 56.2562 473.536 53.6135 472.35 50.6912C471.164 47.7689 470.589 44.63 470.661 41.4722C470.599 38.2984 471.185 35.1457 472.383 32.2115C473.581 29.2772 475.366 26.6243 477.624 24.4188C479.848 22.1472 482.507 20.3578 485.438 19.16C488.369 17.9622 491.511 17.3811 494.672 17.4524C497.745 17.4035 500.798 17.9789 503.648 19.1446C506.497 20.3102 509.087 22.0423 511.262 24.2383C513.438 26.4343 515.155 29.0494 516.312 31.9287C517.47 34.808 518.044 37.8928 518 41.0005C518 41.7262 517.964 42.7784 517.821 44.266Z" fill="#231F20"/>
<path d="M440.657 29.9702C438.306 29.9776 436.016 30.733 434.114 32.1295C432.211 33.5259 430.791 35.4925 430.056 37.7504C429.32 40.0083 429.307 42.4429 430.017 44.7091C430.727 46.9753 432.124 48.958 434.012 50.3761C435.899 51.7942 438.179 52.5758 440.53 52.61C442.882 52.6443 445.184 51.9294 447.11 50.5668C449.037 49.2042 450.491 47.263 451.265 45.0184C452.039 42.7739 452.095 40.3399 451.424 38.0615L454.331 40.4925L455.551 37.6261L451.065 37.1181C451.065 37.1181 451.065 37.1181 451.065 36.9004L455.372 35.0137L453.578 32.4738L450.814 36.2836C449.868 34.3817 448.416 32.7837 446.622 31.6687C444.829 30.5536 442.763 29.9655 440.657 29.9702ZM435.202 41.4359C435.199 41.2315 435.24 41.0288 435.32 40.8412C435.401 40.6537 435.519 40.4854 435.668 40.3474L434.269 39.912C434.083 39.859 433.926 39.7337 433.832 39.5636C433.737 39.3935 433.714 39.1925 433.766 39.0049C433.819 38.8172 433.943 38.6583 434.111 38.563C434.279 38.4678 434.478 38.444 434.664 38.4969L438.253 39.6217C438.345 39.6468 438.432 39.6903 438.507 39.7498C438.583 39.8093 438.646 39.8835 438.693 39.9681C438.74 40.0526 438.769 40.1458 438.78 40.2421C438.791 40.3384 438.782 40.4359 438.755 40.5288C438.708 40.6817 438.611 40.8145 438.482 40.9063C438.352 40.9982 438.196 41.0441 438.037 41.0368C438.054 41.1693 438.054 41.3034 438.037 41.4359C437.983 41.786 437.806 42.1048 437.54 42.3351C437.273 42.5654 436.934 42.6919 436.584 42.6919C436.233 42.6919 435.894 42.5654 435.628 42.3351C435.361 42.1048 435.185 41.786 435.13 41.4359H435.202ZM446.723 39.912L445.287 40.3474C445.454 40.5134 445.579 40.7184 445.65 40.9443C445.72 41.1702 445.735 41.4102 445.693 41.6433C445.651 41.8765 445.553 42.0957 445.408 42.2817C445.263 42.4678 445.075 42.6151 444.861 42.7108C444.646 42.8064 444.412 42.8475 444.178 42.8305C443.944 42.8134 443.718 42.7388 443.519 42.613C443.321 42.4873 443.155 42.3142 443.038 42.109C442.921 41.9038 442.855 41.6727 442.846 41.4359C442.826 41.3037 442.826 41.169 442.846 41.0368C442.688 41.0002 442.546 40.9103 442.445 40.7818C442.343 40.6532 442.288 40.4937 442.288 40.3292C442.288 40.1648 442.343 40.0052 442.445 39.8767C442.546 39.7481 442.688 39.6582 442.846 39.6217L446.435 38.4969C446.626 38.4495 446.826 38.4752 446.999 38.5691C447.171 38.663 447.303 38.8183 447.369 39.0049C447.396 39.0978 447.404 39.1953 447.394 39.2916C447.383 39.3879 447.353 39.481 447.307 39.5656C447.26 39.6501 447.197 39.7243 447.121 39.7838C447.045 39.8433 446.959 39.8869 446.866 39.912H446.723ZM434.628 37.5172H446.579C448.517 37.5172 449.091 39.8031 449.055 41.3633C448.939 42.2069 448.553 42.9891 447.957 43.5914C447.362 44.1938 446.588 44.5834 445.754 44.7014C442.954 44.7014 442.38 42.8509 440.621 42.8509C438.863 42.8509 438.253 44.7014 435.453 44.7014C434.621 44.5778 433.85 44.1863 433.255 43.585C432.661 42.9837 432.273 42.2046 432.151 41.3633C432.151 39.8031 432.69 37.5172 434.628 37.5172Z" fill="white"/>
</g>
<defs>
<clipPath id="clip0_44_20">
<rect width="518" height="66" fill="white"/>
</clipPath>
</defs>
</svg>
