<svg width="41" height="47" viewBox="0 0 41 47" fill="none" xmlns="http://www.w3.org/2000/svg">
<path d="M31.5385 12.5333H9.46154C7.71967 12.5333 6.30769 11.1305 6.30769 9.4V1.56667C6.30769 0.701553 7.01384 0 7.88462 0C8.75539 0 9.46154 0.701553 9.46154 1.56667V6.26667H12.6154V3.13333C12.6154 1.40279 14.0274 0 15.7692 0C17.5111 0 18.9231 1.40279 18.9231 3.13333V6.26667H22.0769V3.13333C22.0769 1.40279 23.4889 0 25.2308 0C26.9726 0 28.3846 1.40279 28.3846 3.13333V6.26667H31.5385V1.56667C31.5385 0.701553 32.2446 0 33.1154 0C33.9862 0 34.6923 0.701553 34.6923 1.56667V9.4C34.6923 11.1305 33.2803 12.5333 31.5385 12.5333ZM41 45.4333C41 46.2984 40.2939 47 39.4231 47H1.57692C0.706146 47 0 46.2984 0 45.4333C0 44.5682 0.706146 43.8667 1.57692 43.8667H3.15385C4.89572 43.8667 6.30769 42.4639 6.30769 40.7333C6.30769 40.7333 9.46154 21.9333 9.46154 18.8C9.46154 17.0695 10.8735 15.6667 12.6154 15.6667H28.3846C30.1265 15.6667 31.5385 17.0695 31.5385 18.8C31.5385 21.9333 34.6923 40.7333 34.6923 40.7333C34.6923 42.4639 36.1043 43.8667 37.8462 43.8667H39.4231C40.2819 43.8664 40.983 44.5491 41 45.402V45.4333ZM25.2308 32.9C25.2308 30.3043 23.1126 28.2 20.5 28.2C17.8874 28.2 15.7692 30.3043 15.7692 32.9V43.8667H25.2308V32.9Z" fill="black"/>
</svg>
