<svg width="44" height="50" viewBox="0 0 44 50" fill="none" xmlns="http://www.w3.org/2000/svg">
<path d="M41.1896 0H13.0046C11.6719 0 9.81055 0.770996 8.86816 1.71328L1.71328 8.86816C0.770899 9.81055 0 11.6719 0 13.0046V47.577C0 48.9097 1.09033 50 2.42305 50H30.6082C31.9409 50 34.1217 50 35.4544 50H41.1897C42.5225 50 43.6128 48.9097 43.6128 47.577V41.8415C43.6128 40.5088 43.6128 38.328 43.6128 36.9954V2.42305C43.6127 1.09033 42.5224 0 41.1896 0ZM27.7904 38.9845C27.7904 39.1894 27.6244 39.3554 27.4195 39.3554H9.82285C9.61807 39.3554 9.45195 39.1893 9.45195 38.9845V37.3527C9.45195 37.1479 9.61807 36.9818 9.82285 36.9818H27.4195C27.6244 36.9818 27.7904 37.1479 27.7904 37.3527V38.9845ZM34.1607 31.5268C34.1607 31.7646 33.968 31.9574 33.7302 31.9574H9.88252C9.64473 31.9574 9.45195 31.7647 9.45195 31.5268V30.0145C9.45195 29.7767 9.64473 29.584 9.88252 29.584H33.7303C33.9681 29.584 34.1608 29.7768 34.1608 30.0145V31.5268H34.1607ZM34.1607 24.1289C34.1607 24.3667 33.968 24.5594 33.7302 24.5594H9.88252C9.64473 24.5594 9.45195 24.3666 9.45195 24.1289V22.6166C9.45195 22.3788 9.64473 22.186 9.88252 22.186H33.7303C33.9681 22.186 34.1608 22.3788 34.1608 22.6166V24.1289H34.1607ZM34.1607 16.7311C34.1607 16.9688 33.968 17.1615 33.7302 17.1615H9.88252C9.64473 17.1615 9.45195 16.9688 9.45195 16.7311V15.2187C9.45195 14.9809 9.64473 14.7881 9.88252 14.7881H33.7303C33.9681 14.7881 34.1608 14.9809 34.1608 15.2187V16.7311H34.1607Z" fill="black"/>
</svg>
