<svg width="48" height="50" viewBox="0 0 48 50" fill="none" xmlns="http://www.w3.org/2000/svg">
<path d="M26.3088 45.9199L22.54 46.0277C20.313 46.0914 18.4201 44.3431 18.3564 42.1185C18.2467 38.2836 15.461 36.7941 12.1542 38.8183C10.2585 39.9752 7.73437 39.39 6.56573 37.4938L4.34096 33.8891C3.28666 32.2441 3.82442 30.0658 5.4876 29.0217L5.88779 28.777C9.19516 26.774 9.10547 23.6382 5.68842 21.8064L5.2749 21.5849C3.55475 20.6375 2.89337 18.4936 3.85192 16.791L5.86701 13.065C6.92537 11.1051 9.41195 10.3766 11.3707 11.4232C14.7877 13.2551 17.4838 11.6089 17.3741 7.77399C17.3111 5.57051 19.079 3.69636 21.3274 3.63205L25.0962 3.52425C27.3232 3.46056 29.2163 5.2088 29.2799 7.43346C29.3896 11.2683 32.1753 12.7578 35.4821 10.7336C37.3992 9.57614 39.9019 10.1619 41.0706 12.0581L43.2954 15.6628C44.3497 17.3078 43.8119 19.4861 42.1487 20.5303L41.7485 20.775C38.4412 22.778 38.5308 25.9137 41.9479 27.7456L42.3614 27.967C44.0816 28.9144 44.7429 31.0584 43.7844 32.7609L41.7693 36.487C40.7109 38.4468 38.2244 39.1753 36.2656 38.1287C32.8486 36.2968 30.1525 37.9431 30.2622 41.7779C30.3258 44.0026 28.5358 45.8562 26.3088 45.9199Z" stroke="black" stroke-width="6" stroke-miterlimit="10" stroke-linecap="round" stroke-linejoin="round"/>
</svg>
